#!OML:ASF H:\Male1\Project 1\Capture day 1\Session 1\Male1.ASF
:FULLY-SPECIFIED
:DEGREES
165
root 16.6233 15.4818 -0.659267 174.374 -81.2076 -176.931
lowerback 1.60342 1.36865 -0.630817
upperback 1.62574 1.79031 -2.38095
thorax 0.823951 0.885759 -2.10167
lowerneck -7.90329 4.71842 5.86895
upperneck 12.6305 5.68916 -1.29169
head 5.31354 2.93688 -0.959084
rclavicle -2.5345e-014 1.59028e-015
rhumerus -34.3746 7.76873 -89.6784
rradius 30.696
rwrist -16.0851
rhand -15.1578 2.91771
rfingers 7.12502
rthumb 11.0125 -26.7734
lclavicle -2.5345e-014 1.59028e-015
lhumerus 32.7667 14.0537 55.3997
lradius 95.1722
lwrist -2.67624
lhand -59.0428 -8.96045
lfingers 7.12502
lthumb -31.2401 18.395
rfemur 0.866967 17.201 24.5398
rtibia 19.4069
rfoot -34.0369 -32.8518
rtoes -8.48789
lfemur 1.52061 -18.24 -21.956
ltibia 20.6026
lfoot -26.9691 30.3683
ltoes 3.20899
166
root 16.6255 15.4819 -0.659846 174.217 -81.2492 -176.797
lowerback 1.5601 1.34862 -0.581746
upperback 1.60585 1.76486 -2.40555
thorax 0.829308 0.873726 -2.15344
lowerneck -7.82735 4.78657 5.77502
upperneck 12.6534 5.79481 -1.27053
head 5.30805 2.98557 -0.93122
rclavicle -1.86858e-014 -1.19271e-014
rhumerus -34.1364 7.68003 -89.5525
rradius 30.6305
rwrist -15.899
rhand -15.1186 2.96117
rfingers 7.12502
rthumb 11.0504 -26.7279
lclavicle -1.86858e-014 -1.19271e-014
lhumerus 34.1921 13.6475 55.492
lradius 92.8241
lwrist -3.31315
lhand -58.1083 -8.57469
lfingers 7.12502
lthumb -30.3492 18.9488
rfemur 0.898451 17.1324 24.5617
rtibia 19.3908
rfoot -34.0556 -32.8352
rtoes -8.43697
lfemur 1.54097 -18.34 -21.9519
ltibia 20.6037
lfoot -27.0103 30.3945
ltoes 3.27704
167
root 16.6283 15.4823 -0.660707 174.329 -81.216 -176.937
lowerback 1.54198 1.32634 -0.569963
upperback 1.58284 1.73524 -2.42573
thorax 0.815867 0.859058 -2.18045
lowerneck -7.76048 4.85427 5.69966
upperneck 12.6803 5.90852 -1.33296
head 5.30845 3.03362 -0.93143
rclavicle 1.27222e-014 4.53229e-014
rhumerus -33.8794 7.64293 -89.4214
rradius 30.6592
rwrist -15.8032
rhand -15.0948 3.0228
rfingers 7.12502
rthumb 11.0733 -26.6651
lclavicle 1.27222e-014 4.53229e-014
lhumerus 35.4405 13.284 55.2151
lradius 90.2233
lwrist -3.75638
lhand -56.0305 -7.1773
lfingers 7.12502
lthumb -28.3654 20.6938
rfemur 0.900058 17.1226 24.5485
rtibia 19.413
rfoot -34.0451 -32.8253
rtoes -8.48655
lfemur 1.59027 -18.4153 -21.9919
ltibia 20.573
lfoot -27.0935 30.448
ltoes 3.43448
168
root 16.6313 15.4826 -0.66178 174.701 -81.1029 -177.343
lowerback 1.54514 1.31009 -0.596518
upperback 1.55113 1.71252 -2.44366
thorax 0.780586 0.847292 -2.18433
lowerneck -7.69112 4.93007 5.66589
upperneck 12.7124 6.03787 -1.46856
head 5.31416 3.08646 -0.959794
rclavicle -1.77664e-014 -7.95139e-015
rhumerus -33.6346 7.67087 -89.2965
rradius 30.7866
rwrist -15.8107
rhand -15.0776 3.08837
rfingers 7.12502
rthumb 11.0899 -26.5986
lclavicle -1.77664e-014 -7.95139e-015
lhumerus 36.4905 12.9861 54.6146
lradius 87.528
lwrist -3.87956
lhand -52.5011 -5.1787
lfingers 7.12502
lthumb -24.9877 23.2072
rfemur 0.873882 17.1625 24.4995
rtibia 19.4756
rfoot -33.991 -32.8172
rtoes -8.65761
lfemur 1.67176 -18.4516 -22.0756
ltibia 20.5132
lfoot -27.2099 30.5224
ltoes 3.68321
169
root 16.6342 15.4826 -0.6629 175.194 -80.9161 -177.872
lowerback 1.55587 1.29559 -0.651525
upperback 1.51394 1.69158 -2.44887
thorax 0.734264 0.836094 -2.15943
lowerneck -7.62904 5.02135 5.67034
upperneck 12.753 6.19054 -1.6606
head 5.32776 3.14875 -1.00969
rclavicle 2.28851e-014 0
rhumerus -33.416 7.81253 -89.1907
rradius 31.018
rwrist -15.9418
rhand -15.09 3.1376
rfingers 7.12502
rthumb 11.078 -26.55
lclavicle 2.28851e-014 0
lhumerus 37.3351 12.8003 53.7473
lradius 84.8993
lwrist -3.62559
lhand -47.4272 -2.98598
lfingers 7.12502
lthumb -20.1179 25.9924
rfemur 0.824487 17.238 24.4327
rtibia 19.5674
rfoot -33.8875 -32.8066
rtoes -8.95272
lfemur 1.77325 -18.4384 -22.1781
ltibia 20.4365
lfoot -27.3448 30.6062
ltoes 3.99735
170
root 16.6369 15.4825 -0.663817 175.646 -80.6647 -178.353
lowerback 1.56344 1.2893 -0.705128
upperback 1.46611 1.68166 -2.44455
thorax 0.678955 0.830485 -2.12567
lowerneck -7.54932 5.11031 5.72156
upperneck 12.7909 6.3394 -1.88594
head 5.34038 3.20917 -1.07811
rclavicle -8.89561e-015 4.77083e-015
rhumerus -33.2535 8.04708 -89.116
rradius 31.349
rwrist -16.1817
rhand -15.1722 3.11973
rfingers 7.12502
rthumb 10.9987 -26.5721
lclavicle -8.89561e-015 4.77083e-015
lhumerus 38.0236 12.7301 52.7219
lradius 82.4805
lwrist -3.01343
lhand -40.5207 -0.610208
lfingers 7.12502
lthumb -13.4697 28.9342
rfemur 0.756136 17.3385 24.3695
rtibia 19.6716
rfoot -33.7449 -32.7809
rtoes -9.32422
lfemur 1.87684 -18.3673 -22.2683
ltibia 20.3566
lfoot -27.4854 30.6875
ltoes 4.34108
171
root 16.639 15.4822 -0.664282 175.963 -80.3634 -178.687
lowerback 1.55568 1.2902 -0.741106
upperback 1.41423 1.68205 -2.42868
thorax 0.628584 0.830335 -2.08968
lowerneck -7.462 5.1979 5.8129
upperneck 12.8141 6.48278 -2.11901
head 5.34905 3.26836 -1.15606
rclavicle 1.60767e-014 9.54166e-015
rhumerus -33.1397 8.36445 -89.0728
rradius 31.7494
rwrist -16.5048
rhand -15.3608 3.03129
rfingers 7.12502
rthumb 10.8168 -26.6702
lclavicle 1.60767e-014 9.54166e-015
lhumerus 38.6193 12.7907 51.65
lradius 80.322
lwrist -2.18889
lhand -31.8009 1.94769
lfingers 7.12502
lthumb -5.05653 31.8674
rfemur 0.675922 17.4517 24.323
rtibia 19.7742
rfoot -33.5776 -32.7307
rtoes -9.71466
lfemur 1.97397 -18.2438 -22.3295
ltibia 20.282
lfoot -27.6265 30.7612
ltoes 4.69031
172
root 16.64 15.482 -0.664178 176.177 -80.0318 -178.913
lowerback 1.52763 1.28643 -0.769585
upperback 1.37038 1.67718 -2.39821
thorax 0.59741 0.827745 -2.04225
lowerneck -7.38363 5.27916 5.90229
upperneck 12.8261 6.61398 -2.32685
head 5.35482 3.32318 -1.22667
rclavicle 8.49804e-015 -2.38542e-015
rhumerus -33.049 8.76593 -89.0536
rradius 32.1805
rwrist -16.8685
rhand -15.6482 2.91168
rfingers 7.12502
rthumb 10.5395 -26.8041
lclavicle 8.49804e-015 -2.38542e-015
lhumerus 39.1685 12.9999 50.616
lradius 78.4269
lwrist -1.31495
lhand -21.8883 4.5193
lfingers 7.12502
lthumb 4.51664 34.4511
rfemur 0.592823 17.5691 24.2863
rtibia 19.8699
rfoot -33.3993 -32.6551
rtoes -10.092
lfemur 2.06804 -18.0914 -22.3727
ltibia 20.2118
lfoot -27.7656 30.8385
ltoes 5.03182
173
root 16.6402 15.482 -0.663557 176.358 -79.6897 -179.101
lowerback 1.48522 1.26785 -0.807424
upperback 1.33956 1.65321 -2.35277
thorax 0.58639 0.815587 -1.97352
lowerneck -7.33623 5.35845 5.96652
upperneck 12.8394 6.73862 -2.49403
head 5.36406 3.37615 -1.28032
rclavicle -7.36746e-015 4.69132e-014
rhumerus -32.9639 9.21925 -89.0403
rradius 32.6154
rwrist -17.2214
rhand -15.9681 2.77385
rfingers 7.12502
rthumb 10.231 -26.9573
lclavicle -7.36746e-015 4.69132e-014
lhumerus 39.6889 13.3316 49.6331
lradius 76.7462
lwrist -0.525133
lhand -11.575 7.09541
lfingers 7.12502
lthumb 14.4665 36.5711
rfemur 0.506851 17.6831 24.2463
rtibia 19.9638
rfoot -33.2232 -32.5484
rtoes -10.4191
lfemur 2.16386 -17.9345 -22.4142
ltibia 20.1363
lfoot -27.8971 30.9336
ltoes 5.35204
174
root 16.6399 15.482 -0.662619 176.58 -79.3519 -179.327
lowerback 1.43975 1.23486 -0.86551
upperback 1.31966 1.61006 -2.30166
thorax 0.587087 0.79366 -1.88728
lowerneck -7.31224 5.43313 6.0072
upperneck 12.8429 6.85382 -2.62431
head 5.37201 3.42576 -1.31895
rclavicle -1.4971e-014 1.03368e-014
rhumerus -32.8777 9.66811 -89.0218
rradius 33.0377
rwrist -17.5424
rhand -16.2462 2.64763
rfingers 7.12502
rthumb 9.96261 -27.0966
lclavicle -1.4971e-014 1.03368e-014
lhumerus 40.166 13.7236 48.7251
lradius 75.2662
lwrist 0.00565905
lhand -1.9474 9.54662
lfingers 7.12502
lthumb 23.7238 38.1024
rfemur 0.415421 17.7831 24.1888
rtibia 20.0612
rfoot -33.0419 -32.4165
rtoes -10.7234
lfemur 2.26422 -17.7846 -22.4693
ltibia 20.0475
lfoot -28.0188 31.046
ltoes 5.64756
